PathFileType	4	(X/Y/Z)	C:/Users/beibeiliu/ov580/test_trc/User2\sequence.7_training_dense_right.trc
DataRate	CameraRate	NumFrames	NumMarkers	Units	OrigDataRate	OrigDataStartFrame	OrigNumFrames
120	120	22	19	mm	120	43	338
Frame#	Time	ThumbCMC			ThumbMCP			ThumbIP			ThumbTip			IndexMCP			IndexPIP			IndexTip			MiddleMCP			MiddlePIP			MiddleTip			RingMCP			RingPIP			RingTip			PinkyMCP			PinkyPIP			PinkyTip			BackHand1			BackHand2			BackHand3	
		X0	Y0	Z0	X1	Y1	Z1	X2	Y2	Z2	X3	Y3	Z3	X4	Y4	Z4	X5	Y5	Z5	X6	Y6	Z6	X7	Y7	Z7	X8	Y8	Z8	X9	Y9	Z9	X10	Y10	Z10	X11	Y11	Z11	X12	Y12	Z12	X13	Y13	Z13	X14	Y14	Z14	X15	Y15	Z15	X16	Y16	Z16	X17	Y17	Z17	X18	Y18	Z18	
42	0.35	202.274	5.11146	42.62	206.252	7.14996	14.6951	212.847	1.55697	-21.0725	217.598	2.08879	-46.2526	154.62	-30.9007	-18.447	136.44	-8.44922	-21.1766	151.293	7.52253	7.46557	132.788	-36.2436	-7.35884	119.258	-6.12619	-4.80885	146.341	6.15932	25.9205	120.785	-32.8477	7.44187	113.069	-2.43932	10.7792	138.968	4.24129	33.4984	108.458	-34.6183	28.6777	108.133	-0.850731	29.7003	135.144	-1.86318	51.8327	160.989	-49.1491	58.9647	172.397	-37.3622	84.8044	193.336	-30.1371	49.4993	
43	0.358333	205.83	15.0818	40.6424	205.605	16.9071	13.3625	211.653	17.6919	-20.0555	214.03	20.9811	-43.3771	164.583	-27.6364	-18.0682	139.482	-1.84279	-20.2612	153.203	10.4701	8.05903	146.512	-36.7403	-7.85849	125.943	-6.04838	-6.87141	147.11	7.4975	23.4118	129.713	-39.1909	5.40869	117.767	-7.48081	11.1567	139.172	-0.471007	36.9954	117.486	-41.6852	24.4475	115.45	-8.87322	28.5875	139.456	-7.49684	50.4461	174.094	-48.4528	53.875	185.267	-37.428	80.5965	200.431	-23.7923	50.8365	
44	0.366667	198.052	20.8544	39.3064	198.821	29.4272	14.0848	202.001	35.3087	-19.3962	202.938	42.3532	-43.7333	166.019	-19.7594	-24.9367	139.61	-4.15777	-20.7031	151.883	6.07269	13.7818	153.071	-34.6623	-13.2128	126.122	-13.7648	-2.73948	147.527	3.43678	26.4677	136.61	-42.3031	2.08965	121.166	-16.6291	12.4546	143.252	-7.74181	37.328	134.202	-48.5003	20.5265	120.591	-20.605	31.6112	146.648	-15.1816	47.0167	188.113	-49.0858	44.8115	196.096	-32.4773	78.773	208.209	-12.7756	45.8331	
45	0.375	188.249	28.4401	40.8888	185.602	39.6444	12.7553	184.872	50.1246	-19.573	180.847	59.7418	-41.9964	169.937	-16.8356	-22.8713	137.173	-8.27347	-18.0305	149.763	4.94368	15.1711	161.05	-33.8993	-16.3598	129.38	-22.4936	-5.89677	145.821	-4.44651	28.7278	152.672	-47.2362	-0.374156	127.002	-30.0818	13.2945	148.374	-15.0967	37.4939	145.595	-59.3784	16.695	128.985	-36.7003	27.9961	151.205	-25.266	51.9381	200.585	-38.657	39.984	207.457	-29.1018	75.4139	209.507	-0.319116	39.105	
46	0.383333	174.675	33.4193	42.3572	166.473	40.9188	17.4417	158.702	52.5397	-17.4762	149.649	59.0965	-32.5175	165.606	-10.6938	-24.3799	135.767	-19.3457	-14.3307	147.218	-3.57433	19.2369	166.04	-34.2395	-16.2579	132.448	-32.4562	-1.74683	145.988	-13.291	30.5928	162.872	-49.5308	-3.21195	135.11	-41.8124	14.0388	155.246	-22.7867	37.217	160.622	-65.9008	13.3525	139.239	-48.3914	34.3555	160.438	-31.4802	47.3849	208.518	-34.9794	34.2321	214.306	-21.6115	67.0403	205.516	6.35032	39.8447	
47	0.391667	161.816	26.0176	50.2278	146.43	36.601	22.6638	133.506	46.2909	-6.38505	122.747	49.5988	-25.8731	160.981	-9.93946	-22.4871	135.551	-30.2175	-10.599	138.573	-11.5535	19.7717	167.822	-36.9197	-16.0751	136.54	-42.7777	3.20406	146.818	-17.9516	33.0706	171.225	-51.5455	-3.67961	144.537	-53.6082	18.1039	159.556	-29.6058	37.4847	174.977	-64.8368	11.5352	150.929	-55.5218	30.1529	166.597	-35.0011	47.8379	214.451	-22.9845	34.3123	214.989	-9.06824	68.2456	197.226	15.118	43.8783	
48	0.4	149.532	22.4774	52.5171	131.287	27.8338	29.7492	114.872	34.516	-1.24944	100.234	37.1756	-13.6858	154.491	-16.7512	-22.9356	132.864	-34.4541	-12.9718	138.499	-23.4175	21.6717	168.673	-35.5503	-16.7362	141.746	-49.5577	1.04467	147.27	-25.8897	34.0147	174.049	-48.8739	-6.50053	152.877	-59.3983	13.6407	167.711	-30.6767	38.6659	186.457	-61.0947	9.66286	162.04	-64.2165	33.0947	172.7	-37.3351	47.2551	212.596	-12.4783	33.5732	215.052	-2.07416	64.1312	188.242	19.83	43.2796	
49	0.408333	143.26	14.0024	53.9278	122.789	18.1804	28.802	101.983	22.9029	7.10212	86.4617	24.4134	-10.6963	152.209	-15.8831	-19.7687	136.246	-42.6229	-7.13406	139.822	-26.5383	24.6109	167.335	-28.5563	-17.4021	149.012	-56.625	4.02105	150.168	-33.7763	33.9723	179.164	-50.0001	-6.28011	158.259	-60.6462	12.8563	168.537	-31.6378	38.2802	191.528	-53.9026	6.30746	171.589	-64.6288	31.491	176.641	-38.3576	47.3018	208.84	-4.2529	29.5946	207.185	4.59067	62.9588	179.903	21.8355	44.6983	
50	0.416667	133.954	10.0067	53.7682	113.538	10.4347	33.7995	94.9062	12.7212	9.81629	77.3575	14.3683	-8.70814	146.267	-17.8905	-22.1256	135.995	-47.0587	-9.76394	138.592	-34.2346	23.498	164.344	-32.4607	-19.5274	150.446	-56.8567	-1.04966	155.547	-37.2922	35.1385	182.181	-47.0807	-7.56185	165.51	-62.6062	12.8968	171.476	-32.9281	38.423	193.782	-51.2294	5.35013	173.547	-60.8437	28.4796	183.748	-37.3623	48.0949	201.339	2.87559	26.101	202.776	11.1217	61.295	172.26	20.5056	46.33	
51	0.425	128.745	6.05501	57.2967	112.889	4.66438	30.8157	93.2874	3.84185	8.11959	75.4103	4.23159	-10.4208	148.004	-18.2775	-20.6675	141.244	-48.7822	-12.0927	137.309	-36.8264	23.3074	167.23	-28.6973	-17.8282	154.604	-58.9238	-1.63963	150.53	-37.0861	35.0181	185.586	-44.2961	-6.80947	166.043	-60.6762	15.7768	171.042	-32.0998	38.8911	195.224	-49.0858	5.32514	181.658	-61.8072	29.9334	182.793	-30.6379	48.4507	198.406	6.66711	26.1766	201.428	13.4293	63.0593	164.812	22.9259	44.9454	
52	0.433333	126.315	3.04559	55.0715	108.05	-1.74046	31.6706	92.0331	-4.40533	4.50312	73.1408	-6.39324	-9.6491	148.062	-26.4328	-20.698	140.54	-54.6493	-8.16385	142.212	-37.4005	25.9536	168.943	-34.48	-17.7928	156.018	-61.1095	0.541199	154.628	-40.0003	36.4537	183.067	-45.9813	-5.56353	170.763	-62.1055	16.951	169.828	-32.044	40.2263	197.634	-46.3083	7.20387	180.606	-59.292	32.021	180.359	-31.2083	48.9716	197.6	8.24861	28.241	192.262	16.3836	65.8573	161.94	19.6298	44.3909	
53	0.441667	123.245	-0.970649	56.5375	103.815	-6.92802	33.643	87.9338	-12.7228	7.99078	71.0262	-16.6534	-13.7071	146.67	-27.0556	-18.0839	145.721	-57.213	-8.77399	142.971	-44.7088	25.3814	165.702	-34.5327	-15.3034	159.083	-65.4756	7.78171	154.567	-43.4223	39.6091	185.482	-48.306	-2.19166	173.927	-64.2093	20.4882	164.778	-31.8767	40.7026	200.547	-45.9197	10.7467	185.517	-60.6688	36.1933	177.1	-32.3759	50.9917	192.885	10.3185	31.3592	188.107	18.9794	64.858	153.907	20.7288	43.8126	
54	0.45	122.015	-5.02794	59.6491	104.254	-13.677	38.01	85.9782	-20.4861	7.84746	71.9403	-28.753	-6.92771	144.603	-34.9332	-15.76	142.588	-62.8713	-0.163987	139.246	-48.4481	30.3004	163.59	-39.5332	-11.8254	157.81	-67.3105	12.8947	149.025	-46.8757	42.122	180.457	-48.2286	1.24372	174.839	-64.9717	25.2918	164.144	-36.6359	45.6235	196.327	-47.8377	13.6259	181.609	-58.032	40.5267	177.172	-26.8461	55.7267	184.364	9.71544	29.3354	183.839	20.7854	65.8854	148.035	19.2249	42.4583	
55	0.458333	117.446	-8.76759	64.2571	99.3377	-18.2405	40.5083	80.6971	-28.5698	16.9037	68.0037	-38.2012	-4.22851	134.192	-38.0743	-9.91246	138.9	-65.3782	4.17589	135.141	-52.4135	35.5309	156.954	-41.5431	-7.03716	153.916	-69.5737	15.4739	146.236	-45.2906	48.6205	178.243	-46.8345	4.70112	165.066	-65.4656	29.5588	161.899	-36.798	51.5339	191.158	-45.0124	15.5974	180.031	-59.6788	45.1557	169.692	-31.3779	57.4748	177.86	10.3737	30.8331	176.296	20.6188	68.0082	137.956	15.7644	47.2588	
56	0.466667	110.103	-11.8894	73.1868	89.8579	-24.018	51.9001	73.2462	-33.7463	25.95	58.0056	-44.2918	9.52931	123.684	-42.0397	-1.90161	125.756	-69.2034	9.49508	125.243	-53.8616	44.2872	144.462	-43.7633	-1.32094	147.287	-72.0404	19.5776	139.536	-50.6241	53.5693	163.346	-48.231	8.07072	162.709	-68.9599	34.2418	156.236	-40.935	55.4703	178.834	-46.7177	17.9456	174.048	-62.2079	47.5423	168.658	-32.5827	62.1063	168.075	8.15341	37.0764	167.659	20.5209	70.11	132.034	12.5105	54.091	
57	0.475	102.658	-14.6236	85.0472	79.8896	-26.2798	62.9665	58.4852	-38.1679	38.4168	48.4424	-48.7215	27.0039	105.573	-43.2898	8.0229	115.427	-72.3991	19.8587	117.096	-53.3448	52.0085	131.646	-46.1709	5.93294	134.581	-75.0475	29.4109	133.169	-51.5994	60.3223	152.985	-49.4309	12.4331	151.943	-70.5723	36.7671	142.65	-41.4532	59.547	169.75	-50.2245	20.1946	161.476	-62.5323	48.4611	157.303	-31.1387	65.45	151.946	7.71929	40.9687	158.868	19.2894	70.5207	122.397	10.8827	61.8917	
58	0.483333	96.135	-14.5878	92.1283	72.682	-27.7401	79.0668	47.6746	-38.3315	59.4383	34.1511	-50.0085	42.6794	91.6864	-44.6309	18.9523	98.022	-74.7157	32.2774	103.673	-55.6246	61.1415	114.145	-46.5015	13.7973	123.803	-75.7855	37.7702	119.091	-49.8108	68.9967	132.618	-52.3288	17.9967	140.423	-70.159	44.2461	134.56	-42.926	64.6724	154.896	-50.5451	23.2139	152.225	-63.8514	53.7337	149.786	-34.349	70.1091	143.849	5.28666	45.1348	152.307	19.9257	77.6212	113.205	10.9918	71.0377	
59	0.491667	92.2989	-13.3858	100.634	63.6828	-24.1577	90.2125	42.1052	-35.4332	67.2067	23.1141	-45.6438	59.8852	73.614	-44.309	29.3216	84.5366	-72.5059	38.9457	96.6458	-52.6958	67.804	98.6053	-50.7812	20.9906	107.864	-76.1799	44.4189	112.275	-50.597	73.4008	120.825	-55.0296	22.0532	127.211	-72.4318	48.613	127.834	-42.2388	67.9292	141.054	-51.1829	25.2619	142.174	-66.4316	55.6657	139.441	-38.2537	69.9299	130.764	2.41039	44.6831	145.871	18.8206	78.3385	107.668	12.4058	76.553	
60	0.5	86.5554	-8.95543	107.862	63.1785	-19.1267	92.7958	33.105	-26.8504	78.2271	10.8766	-35.3221	71.5734	65.1514	-40.7859	31.3446	72.4003	-68.5517	47.1391	84.3696	-47.8711	74.4575	85.0295	-43.3027	24.6921	90.7917	-72.6133	46.0424	104.036	-42.1649	75.3723	109.056	-56.2543	24.5317	114.436	-70.1779	49.5777	118.771	-38.8452	68.4271	130.609	-51.6732	26.7228	125.849	-63.8386	58.3482	133.94	-38.3066	72.0707	127.105	4.78284	45.8105	142.922	18.3022	76.6494	102.302	14.6169	76.0213	
61	0.508333	82.9585	-3.61064	102.775	55.853	-11.5263	96.8141	25.3728	-16.8493	80.4216	7.72057	-23.9088	71.7718	57.8276	-29.6239	33.2526	66	-61.4875	44.0803	76.481	-44.7476	71.7477	82.2452	-38.2978	23.1322	81.6773	-67.9435	46.5395	93.3149	-41.8664	73.9364	98.0649	-50.1693	24.437	101.479	-68.7104	47.0325	111.075	-38.6368	67.7954	117.891	-52.3411	26.9567	119.2	-65.0596	54.8887	123.575	-32.2788	71.0985	124.724	3.59158	44.0089	142.006	16.491	74.1079	99.699	17.815	77.3641	
62	0.516667	80.8835	3.55768	100.086	54.6357	-3.46297	90.0676	22.1871	-5.37634	72.9179	2.02703	-9.61728	69.1753	58.4233	-23.5007	28.2434	59.5928	-53.387	37.9934	72.749	-36.5875	69.4372	76.1806	-37.9728	17.6028	75.1546	-62.3978	42.0335	91.4379	-35.0999	70.0807	97.6841	-46.456	20.1354	93.5713	-63.365	48.3409	106.514	-30.7425	64.2847	117.683	-50.7635	23.2563	110.574	-61.0605	55.2112	117.237	-30.3282	66.7183	125.672	5.63043	43.4715	145.588	16.4012	72.2393	102.272	19.3771	71.1273	
63	0.525	78.6767	6.98152	93.774	52.974	2.47698	82.8526	21.8287	2.97053	69.3391	-2.17375	0.180326	62.2856	59.115	-20.088	22.1942	54.0435	-49.8181	38.2248	74.7109	-30.7271	62.5496	77.7708	-32.128	13.9879	73.9791	-58.6259	34.787	91.412	-31.4622	66.3552	97.5639	-43.8264	16.1595	94.5041	-61.7315	41.7741	104.888	-32.7056	59.715	116.086	-49.3449	20.544	106.309	-59.3321	48.7241	116.608	-31.6971	65.3435	126.315	6.84992	36.6348	144.978	15.3986	70.941	101.605	21.9053	67.8853	
